<?xml version="1.0" encoding="UTF-8"?>
<svg id="Capa_2" data-name="Capa 2" xmlns="http://www.w3.org/2000/svg" viewBox="0 0 215.31 215.3">
  <defs>
    <style>
      .cls-1 {
        fill: #fff;
      }

      .cls-2 {
        fill: #ca9e67;
      }

      .cls-3 {
        fill: #683c11;
      }
    </style>
  </defs>
  <g id="Capa_1-2" data-name="Capa 1">
    <g>
      <path class="cls-2" d="M212.81,107.65c0,58.08-47.08,105.16-105.16,105.16S2.5,165.73,2.5,107.65,49.58,2.5,107.65,2.5s105.16,47.08,105.16,105.16"/>
      <path class="cls-3" d="M107.65,215.3C48.29,215.3,0,167.01,0,107.65S48.29,0,107.65,0s107.65,48.29,107.65,107.65-48.29,107.65-107.65,107.65M107.65,4.99C51.04,4.99,4.99,51.05,4.99,107.65s46.05,102.66,102.66,102.66,102.66-46.05,102.66-102.66S164.26,4.99,107.65,4.99"/>
      <path class="cls-3" d="M54.39,38.06c-.3-.18-.94-.62-1.29-.37-.62.43,1.42,2.92,1.87,3.57,1.49,2.13,2.07.24,2.81,1.32.79,1.13-1.31,2.66-2.08,3.2-.7.49-2.55,1.69-3.27.66-.79-1.13,1.05-1.03.07-2.77-1.01-1.78-2.12-3.76-4.13-6.64-.83-1.19-1.34-1.76-1.88-2.06-.49-.28-1.72.37-2.29-.44-.79-1.13.86-2.7,2.46-3.81,2.33-1.62,2.56-1.2,3.87-.6,1.51.69,5.03,3.09,6.04,2.68.71-.29-.15-3.27-.35-5.08-.29-2.58-.69-3.19,1.94-5.02.88-.61,2.91-1.94,3.78-.69.56.8-.23,1.58.05,2.39.23.67,1.73,3.11,2.35,4.01.21.3,1.85,2.4,3.23,4.2,1.07,1.41,2.04.26,2.67,1.15.93,1.33-1.84,3.18-2.71,3.79-.82.57-3.48,2.55-4.37,1.28-.49-.7.33-1.44.02-2.17-.16-.39-2.15-4.09-2.84-3.61-.62.43-.03,2.62.2,3.97.2,1.22,1.07,3.99.38,4.35-.35.18-.48.33-3.55-1.52l-2.96-1.78Z"/>
      <path class="cls-3" d="M69.71,22.63c-1.24-3.55-2.47-1.48-2.96-2.9-.44-1.26,1.29-2.04,2.21-2.36.48-.17.95-.28,1.44-.43.47-.11.97-.24,1.43-.4.73-.26,1.45-.56,2.19-.87.73-.28,1.46-.59,2.2-.85,2.59-.9,5.99-.81,7.05,2.24.48,1.37.28,2.93-.79,4-.17.19-.3.31-.21.59.12.34.45.33.76.35,1.81.04,2.89.84,4.07,3.2,1.02,2.03,2.06.23,2.55,1.63.3.87-.43,2.15-3.02,3.06-3.66,1.28-4.86-.67-6.62-3.44-.62-.96-1.37-1.86-2.63-1.42-.5.18-.66.31-.16,1.75.23.66.6,1.56.94,2.17.55.99,1.61.26,1.99,1.36.29.82-.07,1.64-3.78,2.94-1.1.38-4.35,1.52-4.93-.15-.42-1.19,1.59-.97.55-3.94l-2.28-6.53ZM75.37,21.78c.16.61.22,1.16.98.89,1.49-.52,1.68-1.51,1.19-2.93-.39-1.12-1.07-2.17-2.4-1.71-.85.3-.64.81-.44,1.54l.67,2.21Z"/>
      <path class="cls-3" d="M94.78,28.27c-1.61.25-3.1-.85-3.35-2.45-.25-1.61.85-3.1,2.45-3.35,1.61-.25,3.1.85,3.35,2.45.25,1.61-.85,3.1-2.45,3.35"/>
      <path class="cls-3" d="M111.88,13.65c.23-1.81-2.11-1.3-1.92-2.81.12-.96,1.21-1.05,1.95-.95.6.08,1.17.2,1.77.27,3.49.44,5.65.38,6.66.5,3.27.42,6.18,2.72,5.73,6.33-.46,3.59-3.73,5.12-7.08,4.7-.72-.09-1.43-.3-2.08-.39-.29-.04-.4.07-.43.34l-.18,1.4c-.31,3.02,1.6,1.99,1.43,3.39-.2,1.56-3.67,1.2-4.76,1.06-1.01-.13-4.57-.61-4.37-2.17.17-1.32,1.82-.28,2.07-2.26l1.2-9.41ZM118.47,13.32c-.94-.12-.95.17-1.01.65l-.46,3.61c-.07.51-.35,1.03.95,1.2,1.59.2,2.37-.92,2.55-2.39.19-1.52-.42-2.86-2.03-3.07"/>
      <path class="cls-3" d="M130.03,21.35c1.27-1.33,2.92-3.01,3.56-4.81.56-1.58,1.71-2.51,3.75-1.79,1.99.7,2.52,3.19,2.88,5.01.15.8,1.13,9.02,1.29,11.19.14,2.01,1.75,1.39,1.28,2.69-.59,1.67-3.81.45-4.96.05-3.27-1.16-5.23-1.88-4.72-3.3.39-1.1,1.64-.19,1.92-.99.36-1.03-.17-1.32-3.86-2.63-1.19-.42-1.91-.63-2.31.49-.32.89,1.36.82.94,2.01-.49,1.37-2.96.52-3.88.19-3.27-1.16-3.35-1.88-3.09-2.61.38-1.08,1.5-.32,2.46-.91.72-.44,1.59-1.37,2.19-1.98l2.55-2.62ZM134.25,24.7c.23.08.9.37,1.02.03.12-.34-.12-1.77-.19-2.15-.08-.44-.17-1.42-.67-1.6-.55-.19-1.43,1.04-1.61,1.26-.18.22-.89.97-.98,1.25-.14.39.46.52.71.61l1.72.61Z"/>
      <path class="cls-3" d="M159.94,33.68c.1.37.33,1.39.68,1.64.5.35,1.09-.45,1.33-.79.35-.5.93-1.36,1.09-1.93.31-1.03-.95-1.47-.2-2.54.89-1.27,2.88.21,3.71.8.87.61,3.11,2.04,2.14,3.41-.8,1.13-1.55-.03-2.53.65-.76.53-1.63,1.76-2.16,2.52l-3.62,5.14c-.63.89-2.42,3.69-3.75,2.76-.4-.28-.57-.76-.68-1.22l-2.26-9.81c-.1-.45-.28-1.29-.69-1.59-.61-.43-1.54.84-1.83,1.26-.39.56-.89,1.3-1.13,1.9-.6,1.48.79,1.74.11,2.72-.93,1.33-3.06.01-3.99-.65-.91-.64-2.87-2.2-1.96-3.49.74-1.05,1.6.18,2.69-.95.74-.76,1.66-1.98,2.29-2.87,1-1.43,2.02-2.88,2.81-4.46,1.08-2.21-.89-2.44-.06-3.63.99-1.41,3.61.56,4.51,1.18,1.23.87,1.39,1.1,1.73,2.52l1.8,7.43Z"/>
      <path class="cls-1" d="M182.79,107.65c0,41.5-33.64,75.13-75.13,75.13s-75.13-33.64-75.13-75.13S66.16,32.52,107.65,32.52s75.13,33.64,75.13,75.13"/>
      <path class="cls-3" d="M129.97,42.72s0,.09,0,.13c.03,1.02.07,2.03.1,3.04,25.25,9.16,43.29,33.36,43.29,61.77,0,36.28-29.41,65.7-65.7,65.7s-65.7-29.41-65.7-65.7c0-18.24,7.44-34.74,19.44-46.65-.24-.51-.47-1.02-.72-1.53-.22-.45-.4-.9-.57-1.33-13,12.49-21.1,30.06-21.1,49.51,0,37.91,30.73,68.65,68.65,68.65s68.65-30.73,68.65-68.65c0-30.1-19.38-55.67-46.33-64.94"/>
      <path class="cls-3" d="M154.4,102.06l-.03-.12c-.63-2.44-2.1-4.45-4.77-4.67-.32-.03-.66-.03-1.01,0-1.09.08-2.78.52-3.81.93-.76.31-5.07,3.26-5.38,3.81-.32.56.38,1.42.52,2.2.21,1.21.03,2.49-.42,3.75-1.03,2.93-3.45,5.78-5.42,7.52-5.49,4.84-13.65,8.47-22.18,10.45-8.53,1.96-17.46,2.29-24.52.36-2.53-.7-5.96-2.19-8.17-4.38-.95-.94-1.68-2-2.02-3.19-.21-.75.04-1.83-.5-2.2-.52-.35-5.69-1.11-6.51-1.06-1.1.08-2.81.43-3.83.83-.33.13-.63.28-.9.45-2.3,1.38-2.74,3.82-2.24,6.29l.03.12c.35,1.64,1.12,3.29,2.03,4.64.03.04.05.08.08.12.21.3.43.59.65.87,9.17,11.07,30.03,12.42,43.23,10.5.16-.02.32-.05.48-.07,1.6-.25,3.27-.58,4.99-.98h.04s.02-.01.04-.02c1.72-.39,3.36-.83,4.91-1.31.15-.05.31-.1.46-.15,12.7-4.07,30.85-14.45,34.22-28.42.08-.34.15-.7.21-1.07,0-.05.01-.1.02-.15.23-1.61.19-3.43-.21-5.06"/>
      <path class="cls-3" d="M82.47,118.17c4.35,1.38,9.3,1.95,14.47,1.82,1.82-2.91,3.4-6.09,4.58-9.32.27-.73.88-3.6,1.36-3.72.23-.06,2.14.38,2.31.51.59.45-.75,3.87-1.03,4.65-.9,2.54-2.28,5.26-3.68,7.69,12.41-1.03,25.44-5.83,33.61-12.86,1.26-1.08,2.7-2.55,4-4.25-6.4-17.67-10-36.92-10.6-60.62,0,0,.44-5.93-3.81-6.1-5.85-.23-18.64,1.43-31.42,4.28-13.24,2.95-25.92,7.42-29.89,9.77-2.67,1.58-1.96,5.13-.61,7.9,11.2,23.11,13.61,43.77,16.98,58.7,1.31.66,2.6,1.18,3.74,1.54M106.54,104.63c.13-2.58,1.34-5.99,3.22-7.81,2.33-2.24,5.91-2,8.2-3.78.34-.27.29-.81.7-.76-.25,6.98-4.55,13.1-12.13,12.35M109.39,91.76c.54-2.22.95-4.42,2.26-6.34,2.01-2.94,5.01-3.32,8.15-4.41l1.96-1.32c-.59,6.99-4.65,13.11-12.38,12.07M119.23,41.8c2.14,4.53,3.29,10.68,3.24,15.71,0,.69-.23,4.35-.54,4.61-.16.14-1.64.05-1.79-.52-.1-.38.42-2.57.44-3.41.04-1.48-.19-3.47-.35-4.98-.37-3.5-1.17-7.12-2.5-10.38-.02-.61,1.08-.74,1.49-1.03M123.05,66.19c.02,7.1-3.87,13.36-11.62,12.92.54-3.68,1.38-7.15,4.69-9.27,2.25-1.44,5.11-1.39,6.94-3.65M111.29,39.53c1.07,3.36,2.01,6.89,1.75,10.34l-1.84-.27c.02-1.66-.17-3.46-.48-5.11-.16-.83-1.41-4.22-1.36-4.44.05-.2,1.77-.66,1.92-.52M109.79,54.03c.6-.86,1.45-1.38,1.84-2.31.68-.41,2.81,3.24,3.11,3.89,1.95,4.32,2.13,10.11-2.19,13.05-1.05.72-1.25.59-2.25-.26-4.21-3.57-3.4-10.2-.51-14.37M107.59,69.31c.65.8,2.04,3.84,1.99,4.77l-.26,4.64c-6.63-1.06-9.16-6.27-8.62-12.6l.68-2.47c.89,2.77,4.44,3.5,6.21,5.66M101.45,41.05c1.65.11,4.53,18.5,2.7,20.63l-1.84-.37c.92-4.95.27-10.3-.94-15.15-.21-.84-1.45-3.92-1.44-4.26,0-.09,1.43-.86,1.52-.85M99.91,75.8c.63.4.75,1.21,1.26,1.77,1.16,1.29,3.25,2.24,4.44,3.59,2.45,2.76,2.45,6.8,1.68,10.21-7.57-1.73-9.09-8.81-7.37-15.57M96.78,89.06c.32-1.31.63.31.79.53,2.1,2.89,7.41,4.76,7.15,9.49-.07,1.16,0,3.89-.27,4.77-.23.74-2.9-.67-3.41-.98-4.98-2.94-5.53-8.58-4.26-13.81"/>
      <path class="cls-3" d="M128.46,158.12c-3.74-1.45-5.78-4.88-9.16-6.79-4-2.25-8.18-1.7-11.64.97-2.41-2.12-5.68-2.9-9.04-2-5.04,1.36-7.21,6.3-12.05,7.98-2.6.9-5.58,1.13-8.21.13-.76-.29-1.35-.88-2.15-1.09,2.03,9.24,24.96,10.8,30.67,4.73.29-.31.6-1.29.96-1.18.13.04.43.83.66,1.08,3.9,4.33,15.26,4.22,20.84,2.79,4.07-1.04,9.38-3.54,9.91-7.51-3.14,2.22-7.14,2.3-10.8.88"/>
      <polygon class="cls-3" points="28.92 159.96 29.78 159.29 30.63 160.28 31.05 160.24 38.66 154.33 38.69 154.02 38 152.9 38.81 152.28 42.5 157.03 42.08 157.36 37.49 164.2 45.24 161.41 45.65 161.09 49.36 165.86 48.55 166.49 47.59 165.47 47.25 165.45 39.67 171.33 39.53 171.73 40.33 172.88 39.47 173.54 35.77 168.77 36.62 168.11 37.39 168.98 37.77 168.89 45.38 162.98 45.36 162.95 34.32 166.9 33.16 165.41 39.71 155.68 39.69 155.65 32.08 161.56 31.94 161.96 32.64 162.98 31.78 163.64 28.92 159.96"/>
      <path class="cls-3" d="M47.52,179.25c-.79-.12-1.46-.28-2.02-.49-.56-.21-1.02-.47-1.38-.78-.6-.53-.93-1.14-1-1.84-.06-.7.16-1.33.66-1.9.38-.43.84-.71,1.38-.84.54-.13,1.07-.1,1.6.11.42.16.98.42,1.67.77.69.35,1.49.78,2.39,1.29l.36-.41c.4-.45.57-.91.51-1.38-.06-.46-.35-.92-.86-1.37l-.22-.19-1.28,1.46-1.67-1.47c-.31-.27-.49-.51-.54-.7-.05-.2.02-.4.2-.6.4-.46,1.11-.56,2.1-.29,1,.27,2.01.85,3.03,1.75.62.55,1.08,1.09,1.38,1.64.3.55.43,1.08.39,1.61-.02.32-.11.62-.26.93-.16.3-.48.73-.97,1.29l-.14.16-2.8,3.18v.3s.7.77.7.77l-.63.71-3.1-2.73.5-.95ZM48.12,178.57l1.85-2.1c-.84-.57-1.51-.88-2.02-.95-.51-.07-.94.1-1.29.5-.26.29-.37.61-.33.97.04.35.22.67.54.95.15.13.32.24.53.35.21.1.45.2.73.29"/>
      <path class="cls-3" d="M52.62,184.84l.53-.84.86.44.3-.09,3.29-5.18-1.11-.7.49-.78,3.4.89.92.58-.65,1.02c.98.09,1.74.2,2.28.33.54.14.98.31,1.33.53.78.5,1.21,1.1,1.29,1.79.08.69-.2,1.53-.83,2.52l-2.55,4.01.04.31.8.62-.53.84-4.41-2.81.53-.84.66.31.32-.08,2.14-3.36c.43-.68.61-1.23.53-1.65-.08-.42-.43-.82-1.05-1.21-.28-.18-.48-.3-.63-.38-.14-.08-.27-.15-.4-.2l-3.26,5.12.07.33.61.5-.53.84-4.48-2.85Z"/>
      <path class="cls-3" d="M74.31,186.15c1.5.65,2.51,1.55,3.03,2.7.52,1.15.48,2.41-.11,3.78-.6,1.4-1.5,2.29-2.69,2.69-1.19.4-2.58.26-4.15-.42-1.57-.67-2.61-1.58-3.14-2.72-.53-1.14-.49-2.4.11-3.8.6-1.39,1.51-2.28,2.73-2.67,1.22-.39,2.63-.24,4.22.44M73.75,187.17c-.59-.25-1.15-.17-1.67.25-.52.42-1.03,1.2-1.52,2.33-.49,1.14-.71,2.05-.66,2.71.05.66.38,1.12.97,1.38.59.25,1.13.18,1.63-.23.5-.4.99-1.16,1.47-2.28.51-1.19.75-2.12.71-2.79-.03-.67-.35-1.13-.94-1.39"/>
      <path class="cls-3" d="M88.75,191.36l-.74,2.75-1.29-.35.15-1.49-.17-.31c-.21-.17-.42-.32-.62-.43s-.4-.19-.6-.25c-.42-.11-.78-.12-1.07-.01-.29.11-.48.3-.56.59-.14.51.28,1.11,1.25,1.8.32.22.56.4.73.54.84.64,1.38,1.2,1.62,1.66.24.47.29.99.13,1.57-.22.83-.81,1.43-1.75,1.78-.94.36-2.01.37-3.21.05-.57-.15-1.16-.36-1.78-.62-.62-.26-1.26-.57-1.91-.94l.81-3.01,1.29.35-.22,1.7.14.28c.27.24.56.43.85.59.29.16.6.28.92.36.41.11.76.1,1.06-.02.29-.12.48-.34.57-.66.12-.46-.19-.98-.94-1.56-.17-.13-.29-.23-.37-.3-1.15-.93-1.88-1.64-2.17-2.15-.29-.51-.36-1.05-.21-1.62.22-.84.78-1.42,1.65-1.74.88-.32,1.92-.32,3.13,0,.46.12.96.3,1.5.53.54.23,1.15.52,1.81.88"/>
      <path class="cls-3" d="M104.15,201.13c-.68.41-1.31.71-1.88.9-.57.19-1.09.28-1.57.27-.8-.03-1.45-.3-1.93-.79-.49-.5-.72-1.13-.69-1.89.02-.57.2-1.08.54-1.52.34-.44.77-.75,1.31-.93.43-.14,1.02-.29,1.78-.46.76-.17,1.65-.34,2.67-.51l.02-.55c.02-.6-.14-1.06-.48-1.39-.34-.32-.85-.5-1.53-.52h-.29s-.07,1.93-.07,1.93l-2.22-.08c-.41-.02-.7-.08-.86-.21-.16-.12-.24-.32-.23-.59.02-.61.5-1.13,1.44-1.55.94-.42,2.09-.61,3.45-.56.83.03,1.53.16,2.1.4.58.23,1.02.57,1.32,1,.18.26.31.55.39.89.07.33.09.87.07,1.61v.21s-.17,4.23-.17,4.23l.19.23,1.02.16-.04.95-4.12-.15-.22-1.06ZM104.19,200.22l.1-2.79c-1.01.09-1.73.27-2.17.54-.44.27-.67.67-.69,1.2-.02.39.1.71.36.96.25.25.59.38,1.02.4.2,0,.4-.02.63-.07.23-.05.48-.13.75-.24"/>
      <polygon class="cls-3" points="118.82 201.42 118.66 200.49 119.7 200.15 119.89 199.89 118.1 189.52 116.83 189.74 116.67 188.84 119.89 187.16 120.82 187 122.95 199.3 123.27 199.55 124.41 199.49 124.57 200.42 118.82 201.42"/>
      <path class="cls-3" d="M133.1,197.17c-.52.6-1.02,1.08-1.5,1.45-.48.36-.95.61-1.4.75-.77.22-1.47.18-2.09-.14-.62-.32-1.04-.84-1.25-1.57-.16-.55-.15-1.09.03-1.61.18-.53.49-.96.95-1.29.36-.27.88-.61,1.54-1,.67-.4,1.46-.84,2.37-1.33l-.15-.52c-.17-.58-.47-.96-.89-1.16-.42-.2-.96-.2-1.62-.01l-.28.08.55,1.86-2.13.62c-.4.12-.69.14-.88.08-.19-.06-.33-.23-.4-.49-.17-.59.12-1.23.88-1.93.76-.7,1.79-1.24,3.1-1.62.79-.23,1.5-.33,2.12-.29.62.04,1.14.22,1.57.53.26.18.47.42.65.72.18.29.37.8.57,1.51l.06.2,1.19,4.07.25.15,1.02-.18.26.91-3.96,1.16-.54-.93ZM132.84,196.29l-.79-2.68c-.93.4-1.56.8-1.89,1.2-.33.39-.42.85-.27,1.36.11.37.32.64.64.8.32.16.68.18,1.09.06.19-.05.38-.14.58-.26.2-.12.41-.28.63-.46"/>
      <polygon class="cls-3" points="147.74 192.87 147.16 191.95 148.23 191.2 148.23 190.77 143.12 182.61 142.82 182.54 141.64 183.12 141.1 182.25 146.2 179.06 146.49 179.52 152.82 184.78 150.84 176.78 150.56 176.34 155.68 173.13 156.22 174 155.11 174.85 155.06 175.19 160.14 183.32 160.53 183.5 161.75 182.83 162.32 183.75 157.2 186.95 156.62 186.03 157.57 185.36 157.52 184.97 152.41 176.8 152.38 176.82 155.19 188.21 153.59 189.21 144.58 181.7 144.55 181.72 149.65 189.89 150.04 190.07 151.12 189.48 151.69 190.39 147.74 192.87"/>
      <path class="cls-3" d="M168.8,176.32c-.2.77-.43,1.43-.69,1.97-.27.54-.57.97-.92,1.29-.59.55-1.23.81-1.93.81-.7,0-1.3-.29-1.82-.85-.39-.42-.62-.9-.7-1.45-.08-.55.01-1.08.27-1.58.2-.4.52-.93.93-1.59.42-.65.93-1.4,1.53-2.25l-.37-.4c-.41-.44-.85-.65-1.32-.64-.47.01-.95.25-1.45.71l-.21.2,1.32,1.42-1.63,1.51c-.3.28-.56.44-.76.46-.2.03-.39-.06-.58-.26-.42-.45-.44-1.16-.08-2.12.36-.96,1.05-1.91,2.05-2.83.61-.56,1.19-.96,1.77-1.2.57-.24,1.12-.32,1.64-.23.31.05.61.17.9.35.29.18.68.55,1.19,1.09l.14.15,2.88,3.11.3.02.83-.61.65.7-3.03,2.81-.9-.59ZM168.18,175.65l-1.9-2.05c-.65.77-1.03,1.41-1.15,1.91-.12.5,0,.95.36,1.34.26.29.57.43.93.42.35,0,.69-.15,1-.44.14-.13.28-.3.4-.49.12-.2.24-.43.36-.7"/>
      <path class="cls-3" d="M172.83,159.96l2.21,1.8-.85,1.04-1.3-.74-.35.03c-.25.12-.46.25-.65.39-.18.14-.34.29-.47.45-.28.34-.43.66-.45.97-.02.31.08.56.31.75.41.33,1.13.2,2.15-.41.33-.2.6-.35.79-.45.93-.51,1.66-.77,2.18-.8.53-.03,1.02.14,1.49.52.67.55.97,1.32.91,2.33-.06,1.01-.48,1.99-1.26,2.95-.37.46-.8.91-1.3,1.37-.49.46-1.04.91-1.64,1.36l-2.42-1.97.85-1.04,1.46.9h.32c.33-.17.63-.35.89-.55.26-.2.5-.43.71-.69.27-.33.41-.65.42-.97,0-.32-.11-.58-.37-.79-.37-.3-.97-.23-1.81.22-.19.1-.33.17-.43.22-1.32.67-2.27,1.04-2.85,1.1-.58.06-1.1-.1-1.56-.47-.67-.55-.98-1.29-.92-2.22.06-.93.49-1.88,1.28-2.85.3-.37.67-.75,1.1-1.15.43-.4.95-.83,1.54-1.29"/>
      <path class="cls-3" d="M184.46,156.63c.02.79-.02,1.49-.13,2.08-.11.59-.28,1.09-.53,1.5-.42.69-.96,1.12-1.63,1.3-.67.18-1.34.08-1.98-.31-.49-.3-.84-.7-1.07-1.21-.22-.51-.28-1.04-.17-1.59.09-.45.24-1.04.46-1.78.22-.74.51-1.6.85-2.58l-.47-.28c-.51-.31-.99-.4-1.44-.26s-.85.5-1.2,1.08l-.15.25,1.66,1.01-1.15,1.9c-.21.35-.41.57-.6.65-.18.08-.39.05-.63-.09-.52-.32-.74-.99-.66-2.02.09-1.03.48-2.12,1.19-3.28.43-.71.88-1.25,1.37-1.64.48-.39.99-.61,1.51-.67.31-.04.63,0,.96.09.33.1.81.34,1.44.73l.18.11,3.62,2.2.29-.06.63-.82.81.49-2.14,3.53-1.03-.33ZM183.69,156.16l-2.39-1.45c-.41.92-.61,1.64-.58,2.16.02.51.26.91.72,1.19.33.2.67.25,1.01.15.34-.1.62-.33.84-.69.1-.17.18-.36.25-.59.07-.22.12-.48.16-.77"/>
      <path class="cls-3" d="M39.89,53c-.92.52-4.6,3.16-5.05,4.12-.43.94-.56,2.84-1.13,4.2-.2.48-1.79,3.36-2.12,2.92,2.18-4.69,3.78-10.28,3.77-15.96-2.8,3.54-6.69,6.52-8,11.82-.92,3.74-.44,9.05-1.29,12.97-.13.59-.38,1.34-.79,1.62,1.09-5.31,1.4-10.78.71-16.25-2.43,4.49-6.06,10.03-5.8,16.1.14,3.37,1.3,8.02,1.19,11.34-.02.59-.45,1.19-.38,1.87l-.67-9.05-1.57-6.91c-.53-.14-.32.11-.42.41-.92,2.55-2.72,9.75-2.83,12.51-.26,6.3,3.51,11.08,3.46,17.26l-1.22-5.37c-.91-3.47-2.25-6.78-4.07-9.43-.17,6.3-1.77,12.87.93,18.56,1.13,2.39,3.88,5.96,4.65,8.46.2.65.23,1.58.32,2.3l-1.46-3.57c-1.63-3.47-3.61-6.6-6.07-8.91.55,6.34.51,13.19,4.18,17.7,1.58,1.95,4.46,4.14,5.78,6.27.29.47.6,1.21.62,1.86-1.56-1.99-3.02-4.15-4.78-5.81-1.02-.96-3.18-2.69-4.29-3.18-.27-.12-.37.01-.29.41,1.97,6.04,2.77,12.25,7.38,15.31,1.77,1.17,5.3,2.48,6.73,4.05,1.04,1.15,2.25,3.6,3.37,5.3.28-.14.56-.28.83-.42-.71-.97-1.39-1.98-2.04-3.03-1.17-1.9-1.67-2.56-1.82-5.24-.25-4.34,1.07-7.74.82-11.9-.18-2.98-1.36-5.99-1.03-9.13-.2-.33-1.85,2.13-2.04,2.46-1.72,2.99-2.45,7.12-1.83,10.89-1.21-1.53-.5-5.25-.06-7.19.56-2.43,1.76-4.49,2.2-7.02.6-3.47.09-7.2.71-10.74-3.25,1.77-5.85,6.26-5.91,11.32-1.08-1.31.43-5.08,1.06-6.48,1-2.23,2.61-3.97,3.53-6.29.89-2.24.99-4.21,1.52-6.54.29-1.27.74-2.37,1.02-3.62-3.5.84-6.83,3.86-7.74,8.99-.34.08-.24-1.09-.21-1.32.16-1.24,2.01-4.16,2.76-5.07,1.58-1.94,3.26-2.74,4.69-5.21.93-1.61,1.47-3.52,2.25-5.2.29-.63,1.43-2.21,1.51-2.49.17-.59-.28-.41-.5-.43-3.64-.39-6.73,1.87-8.76,6.09-.03-2.21,2.1-4.15,3.36-5.08,1.85-1.37,3.84-1.62,5.61-3.33,1.94-1.86,3.17-5.06,5.39-6.4.39-.83-3.83-1.48-4.18-1.46-1.54.11-3.69,1.28-4.97,2.5-.33.31-.7,1.33-1.03.85,1.35-2.74,4-3.44,6.21-3.92,4.57-.98,4.23-.94,8.24-3.93.63-.47,1.46-.69,2.04-1.16.18-.15.29-.21.1-.42-1.68-1.85-4.59-2.94-6.69-2.58l-3.38,1.27c1.28-3.15,3.78-1.51,5.44-2.4,1.28-.7,7.38-6.36,8.59-7.78.63-.73,1.31-1.67,1.65-2.73-2.71-1.3-5.62-.23-8.2,1.23M14.68,101.85c-.63-2.75-.39-5.47-.19-8.29.47-.17.33.12.47.36,2.64,4.87,4.04,13,4.21,19.08l-4.49-11.16ZM26.4,120.85c1.76,4.23.36,8.61.5,12.93.04,1.45.34,2.78.53,4.18.04.3.27.95-.11.88-2.86-5.13-3.9-12.47-.92-17.99M26.71,139.42l-7.74-6.52c-.77-.46-3.12-6.73-2.85-7.11,4.4,2.67,8.14,7.83,10.59,13.64M24.87,108.66v4.79c0,1.69-1.57,5.58-1.9,7.74-.28,1.8-.41,3.62-.34,5.47l-1.12-4.05c-.85-5.01.41-10.86,3.37-13.94M25.49,96.47c-.58,4.34-2.03,7.45-3.9,10.83l-1.59,5.71c-.94-6.51.83-14.25,5.5-16.54M21.82,127.23c-2.28-4.18-6.22-7.36-7.39-12.54-.16-.69-.74-4.56-.55-4.87.21-.34,2.12,2.54,2.34,2.9,2.55,4.09,4.54,9.26,5.6,14.51M19.31,97.39c-.05.38-.02,1.41-.34,1.4.02-4.15-2.23-9.39-2.25-13.22-.01-2.59.82-5.3,1.43-7.67l1.12,4.92c.68,4.89.69,9.68.03,14.57M28.13,84.86c-1.14,4.42-3.55,6.54-5.91,9.42l-2.23,4.51c.05-6.57,3.41-13.27,8.14-13.93M21.62,84.57v-12.91c0-.59.73-2.86.98-3.53.48-1.28,1.18-2.41,1.77-3.58.46-.12.28.29.3.72.24,4.78-.48,9.51-1.32,14.08l-1.73,5.22ZM32.82,74.41c-2.32,5.67-7.31,5.56-10.18,10.45,1.13-6.41,5.51-10.99,10.18-10.45M26.71,71.8c.65-3.18,1.02-6.52,1.64-9.7.77-3.9,2.21-6.53,4.67-8.58-.77,6.8-2.97,13.32-6.31,18.28M39.13,66.43c-3.38,4.3-7.97,2.57-11.6,6.24-.26-.38,1.92-3.54,2.24-3.92,2.39-2.84,6.51-4.55,9.37-2.32M37.49,61.19l-2.84.59,5.09-5.08c-.79-.17-4.88,4.36-5.09,4.06.4-1.1.8-2.85,1.48-3.55,2.16-2.21,6.46-3.97,9.11-4l-7.75,7.97Z"/>
      <path class="cls-3" d="M166.17,51.77c.33,1.06,1.02,1.99,1.65,2.73,1.22,1.42,7.31,7.08,8.59,7.78,1.66.9,4.16-.75,5.44,2.4l-3.39-1.27c-2.1-.36-5.01.73-6.69,2.58-.19.21-.08.27.1.42.57.47,1.41.69,2.04,1.16,4.01,2.99,3.67,2.95,8.24,3.93,2.21.47,4.87,1.17,6.21,3.92-.33.48-.7-.54-1.03-.85-1.28-1.22-3.43-2.39-4.97-2.5-.35-.02-4.57.63-4.18,1.46,2.22,1.33,3.45,4.53,5.39,6.4,1.77,1.7,3.76,1.95,5.61,3.32,1.25.93,3.39,2.87,3.36,5.08-2.04-4.23-5.12-6.48-8.76-6.09-.22.02-.68-.16-.5.43.08.28,1.21,1.87,1.51,2.49.78,1.68,1.32,3.59,2.25,5.2,1.43,2.47,3.12,3.27,4.69,5.21.74.91,2.6,3.83,2.76,5.07.03.23.12,1.4-.21,1.32-.91-5.14-4.24-8.15-7.74-8.99.28,1.26.73,2.35,1.02,3.62.53,2.33.64,4.3,1.52,6.54.92,2.32,2.53,4.05,3.53,6.29.63,1.4,2.13,5.17,1.06,6.48-.06-5.06-2.66-9.55-5.91-11.32.62,3.54.11,7.27.71,10.74.44,2.54,1.64,4.6,2.2,7.03.45,1.94,1.16,5.66-.05,7.19.62-3.77-.11-7.9-1.83-10.89-.19-.33-1.84-2.78-2.04-2.46.34,3.15-.85,6.15-1.03,9.13-.25,4.17,1.07,7.57.82,11.9-.15,2.67-.65,3.33-1.83,5.24-.65,1.05-1.33,2.06-2.04,3.03.28.14.56.28.83.42,1.12-1.7,2.33-4.15,3.37-5.3,1.43-1.57,4.96-2.88,6.73-4.05,4.62-3.06,5.41-9.27,7.38-15.31.08-.39-.01-.53-.29-.41-1.11.49-3.27,2.22-4.29,3.18-1.76,1.66-3.22,3.82-4.78,5.81.02-.65.33-1.39.62-1.86,1.33-2.13,4.2-4.32,5.78-6.27,3.67-4.51,3.62-11.35,4.18-17.7-2.46,2.3-4.44,5.44-6.07,8.91l-1.46,3.57c.09-.71.12-1.65.32-2.3.78-2.5,3.53-6.07,4.66-8.46,2.69-5.68,1.09-12.26.93-18.56-1.82,2.65-3.17,5.96-4.07,9.43l-1.22,5.37c-.06-6.18,3.71-10.97,3.46-17.26-.11-2.76-1.91-9.95-2.83-12.51-.11-.3.11-.55-.42-.41l-1.57,6.91-.67,9.05c.06-.68-.36-1.28-.38-1.87-.11-3.32,1.05-7.97,1.19-11.34.26-6.07-3.37-11.61-5.8-16.1-.68,5.48-.38,10.94.71,16.25-.41-.29-.67-1.03-.79-1.62-.84-3.92-.36-9.23-1.29-12.97-1.31-5.3-5.2-8.28-8-11.82-.01,5.68,1.59,11.27,3.77,15.96-.33.44-1.92-2.44-2.12-2.92-.57-1.36-.7-3.26-1.13-4.2-.45-.97-4.13-3.61-5.05-4.13-2.58-1.46-5.49-2.53-8.2-1.23M195.1,113.01c.17-6.07,1.58-14.21,4.21-19.08.13-.24,0-.53.47-.36.19,2.81.44,5.54-.19,8.29l-4.49,11.16ZM186.94,138.84c-.38.07-.15-.58-.11-.88.19-1.4.49-2.72.53-4.18.14-4.32-1.27-8.7.5-12.93,2.98,5.52,1.94,12.86-.92,17.99M198.15,125.78c.27.38-2.08,6.65-2.85,7.11l-7.74,6.52c2.45-5.8,6.19-10.96,10.59-13.64M192.76,122.6l-1.12,4.05c.07-1.85-.06-3.67-.34-5.47-.33-2.15-1.9-6.05-1.9-7.74v-4.79c2.95,3.08,4.22,8.93,3.37,13.94M194.28,113.01l-1.59-5.71c-1.88-3.38-3.33-6.49-3.9-10.83,4.66,2.29,6.44,10.03,5.5,16.54M198.04,112.71c.22-.36,2.13-3.24,2.34-2.9.19.31-.4,4.18-.55,4.87-1.16,5.18-5.11,8.36-7.39,12.54,1.05-5.26,3.05-10.42,5.6-14.52M194.98,82.81l1.12-4.92c.61,2.38,1.45,5.09,1.43,7.68-.02,3.83-2.27,9.07-2.25,13.22-.31,0-.29-1.02-.34-1.4-.67-4.89-.65-9.68.03-14.57M194.28,98.79l-2.23-4.5c-2.37-2.88-4.77-5-5.91-9.42,4.74.66,8.09,7.36,8.14,13.93M190.92,79.34c-.84-4.58-1.57-9.3-1.32-14.08.02-.43-.16-.84.3-.72.59,1.17,1.29,2.3,1.77,3.58.25.67.98,2.94.98,3.53v12.92l-1.73-5.22ZM191.63,84.86c-2.87-4.88-7.86-4.77-10.18-10.45,4.67-.54,9.05,4.04,10.18,10.45M181.25,53.51c2.45,2.06,3.9,4.69,4.67,8.58.63,3.18.99,6.52,1.64,9.7-3.34-4.96-5.54-11.49-6.31-18.28M184.51,68.75c.32.38,2.49,3.54,2.24,3.92-3.63-3.67-8.22-1.94-11.6-6.24,2.85-2.23,6.98-.53,9.37,2.32M169.02,53.22c2.65.03,6.95,1.79,9.11,4,.68.7,1.09,2.44,1.48,3.55-.2.3-4.3-4.23-5.09-4.06l5.09,5.08-2.84-.59-7.75-7.97Z"/>
    </g>
  </g>
</svg>